<?xml version="1.0" encoding="UTF-8"?>
<svg id="Layer_1" data-name="Layer 1" xmlns="http://www.w3.org/2000/svg" viewBox="0 0 165 121">
  <path d="M0,47.39h17.1v5.81H6.94v5h8.71v5.81H6.94v9.6H0v-26.22Z" style="fill: #28235d; stroke-width: 0px;"/>
  <path d="M21.46,60.94v-13.55h6.94v14.36c0,4.68,1.21,6.37,3.95,6.37s4.03-1.69,4.03-6.37v-14.36h6.7v13.55c0,8.96-3.39,13.15-10.73,13.15s-10.89-4.2-10.89-13.15Z" style="fill: #28235d; stroke-width: 0px;"/>
  <path d="M53.74,53.2h-6.94v-5.81h20.81v5.81h-6.94v20.41h-6.94v-20.41Z" style="fill: #28235d; stroke-width: 0px;"/>
  <path d="M71.33,60.94v-13.55h6.94v14.36c0,4.68,1.21,6.37,3.95,6.37s4.03-1.69,4.03-6.37v-14.36h6.7v13.55c0,8.96-3.39,13.15-10.73,13.15s-10.89-4.2-10.89-13.15Z" style="fill: #28235d; stroke-width: 0px;"/>
  <path d="M98.6,47.39h9.92c5.65,0,10.49,1.94,10.49,8.47,0,3.75-1.69,6.21-4.24,7.58l5.69,10.17h-7.75l-4.52-8.79h-2.66v8.79h-6.94v-26.22ZM108.04,59.33c2.74,0,4.2-1.21,4.2-3.47s-1.45-2.99-4.2-2.99h-2.5v6.45h2.5Z" style="fill: #28235d; stroke-width: 0px;"/>
  <path d="M124.01,47.39h16.94v5.81h-10v4.11h8.55v5.81h-8.55v4.68h10.41v5.81h-17.35v-26.22Z" style="fill: #28235d; stroke-width: 0px;"/>
  <path d="M144.83,70.3l3.63-4.52c1.86,1.53,4.36,2.34,6.45,2.34s2.99-.69,2.99-1.86c0-1.25-1.33-1.65-3.55-2.54l-3.27-1.37c-2.82-1.13-5.28-3.51-5.28-7.3,0-4.48,4.03-8.15,9.76-8.15,3.15,0,6.33,1.13,8.71,3.31l-3.63,4.52c-1.77-1.21-3.55-1.86-5.08-1.86-1.69,0-2.74.61-2.74,1.77,0,1.25,1.49,1.69,3.87,2.62l3.19,1.25c3.27,1.29,5.12,3.55,5.12,7.18,0,4.44-3.71,8.39-10.25,8.39-3.47,0-7.1-1.13-9.92-3.79Z" style="fill: #28235d; stroke-width: 0px;"/>
</svg>